<svg xmlns="http://www.w3.org/2000/svg" version="1.1" xmlnsXlink="http://www.w3.org/1999/xlink" xmlnsSvgjs="http://svgjs.com/svgjs" viewBox="0 0 24 24" width="24" height="24"><g transform="matrix(1.7142857142857142,0,0,1.7142857142857142,0,0)"><path d="M14,7a7,7,0,1,0-7,7A7.008,7.008,0,0,0,14,7ZM5.292,10.708a1,1,0,0,1,0-1.415L7.586,7,5.293,4.708A1,1,0,0,1,6.708,3.293l3,3a1,1,0,0,1,0,1.414l-3,3A1,1,0,0,1,5.292,10.708Z" fill="#f1f1f1" stroke="none" stroke-linecap="round" stroke-linejoin="round" stroke-width="0"></path></g></svg>