<svg xmlns="http://www.w3.org/2000/svg" viewBox="0 0 972 1728"><defs/><path fill="#6b5c36" d="M0 0h972v1728H0z"/><g fill-opacity=".5" transform="matrix(6.75 0 0 6.75 3.4 3.4)"><circle r="1" fill="#fff" transform="matrix(141.90777 -17.64047 8.93768 71.89868 81 50.6)"/><path fill="#fff" d="M145.5 0v116h-155V0z"/><circle r="1" fill="#e59907" transform="matrix(-65.21582 8.37265 -6.42615 -50.05425 72.7 160)"/><circle r="1" fill="#fff" transform="matrix(142.30492 -8.70374 4.09702 66.98566 82.9 45)"/><circle r="1" fill="#4a3503" transform="rotate(130.1 5.6 144.9) scale(36.17975 61.13866)"/><path fill="#f08000" d="M140.3 113.5l-20.5 22-16-15 20.4-22z"/><circle cx="84" cy="27" r="87" fill="#fff"/><path fill="#6d4f10" d="M14.5 152.6l38-44 29 5.2L-2.7 182z"/></g></svg>